PathFileType	4	(X/Y/Z)	Kaydara																																																																																																																																																																																																																												
DataRate	CameraRate	NumFrames	NumMarkers	Units	OrigDataRate	OrigDataStartFrame	OrigNumFrames																																																																																																																																																																																																																								
60	60	4	74	mm	60	1026	201																																																																																																																																																																																																																								
Frame#	Time	N_lasi			N_rasi			N_rpsi			N_lpsi			N_fneck			N_bneck			N_fhead			N_rhead			N_lhead			N_rshld			N_relbtop			N_relbext			N_relblow			N_rwrext			N_rwrtop			N_rwrlow			N_lshld			N_lelblow			N_lelbtop			N_lwrext			N_lwrtop			N_lwrlow			N_rtopleg			N_ltopleg			N_rkneefr			N_rkneebk			N_rkneeis			N_lkneefr			N_lknssbk			N_lkneeis			N_rankfr			N_rankis			N_rankbk			N_lankfr			N_lankbk			N_lankis			D_lasi			D_rasi			D_lpsi			D_fneck			D_bneck			D_fhead			D_rhead			D_lhead			D_rshld			D_relbtop			D_relbext			D_relblow			D_rwrext			D_rwrtop			D_rwrlow			D_lshld			D_lelbext			D_lelblow			D_lelbtop			D_lwrext			D_lwrtop			D_lwrlow			D_rtopleg			D_ltopleg			D_rkneefr			D_rkneebk			D_rkneeis			D_lkneefr			D_lknssbk			D_lkneeis			D_rankfr			D_rankis			D_rankbk			D_lankfr			D_lankbk			D_lankis			D_rpsi			N_lelbext		
		X1	Y1	Z1	X2	Y2	Z2	X3	Y3	Z3	X4	Y4	Z4	X5	Y5	Z5	X6	Y6	Z6	X7	Y7	Z7	X8	Y8	Z8	X9	Y9	Z9	X10	Y10	Z10	X11	Y11	Z11	X12	Y12	Z12	X13	Y13	Z13	X14	Y14	Z14	X15	Y15	Z15	X16	Y16	Z16	X17	Y17	Z17	X18	Y18	Z18	X19	Y19	Z19	X20	Y20	Z20	X21	Y21	Z21	X22	Y22	Z22	X23	Y23	Z23	X24	Y24	Z24	X25	Y25	Z25	X26	Y26	Z26	X27	Y27	Z27	X28	Y28	Z28	X29	Y29	Z29	X30	Y30	Z30	X31	Y31	Z31	X32	Y32	Z32	X33	Y33	Z33	X34	Y34	Z34	X35	Y35	Z35	X36	Y36	Z36	X37	Y37	Z37	X38	Y38	Z38	X39	Y39	Z39	X40	Y40	Z40	X41	Y41	Z41	X42	Y42	Z42	X43	Y43	Z43	X44	Y44	Z44	X45	Y45	Z45	X46	Y46	Z46	X47	Y47	Z47	X48	Y48	Z48	X49	Y49	Z49	X50	Y50	Z50	X51	Y51	Z51	X52	Y52	Z52	X53	Y53	Z53	X54	Y54	Z54	X55	Y55	Z55	X56	Y56	Z56	X57	Y57	Z57	X58	Y58	Z58	X59	Y59	Z59	X60	Y60	Z60	X61	Y61	Z61	X62	Y62	Z62	X63	Y63	Z63	X64	Y64	Z64	X65	Y65	Z65	X66	Y66	Z66	X67	Y67	Z67	X68	Y68	Z68	X69	Y69	Z69	X70	Y70	Z70	X71	Y71	Z71	X72	Y72	Z72	X73	Y73	Z73	X74	Y74	Z74
																																																																																																																																																																																																																															
76	17.083	-519.87064	1230.46768	-64.44449	-504.39384	1250.18387	-295.18446	-217.37854	1215.51994	-347.17033	-244.56669	1207.64229	3.89337	-366.44772	1605.51468	-153.1737	-228.17289	1660.50201	-167.55728	-408.16784	1815.93338	-159.03335	-225.19508	1759.93469	-226.33366	-265.47934	1772.71957	-75.04986	-285.05669	1535.42038	-419.62914	-219.3302	1220.4834	-455.34416	-318.72812	1162.21542	-421.77181	-309.15424	1224.61662	-469.11133	-266.89671	900.17426	-482.31155	-300.76998	896.48026	-516.26907	-342.10152	913.10699	-498.83324	-258.44332	1523.19229	80.82168	-306.42614	1205.10666	130.9099	-231.01479	1193.99231	89.64087	-290.10273	882.53914	127.32403	-290.21091	881.06995	175.05848	-340.29339	900.9417	178.79036	-407.20295	1047.18887	-430.71133	-356.24073	1007.20741	53.77529	-428.99399	563.14156	-251.83302	-323.27011	578.10802	-321.24779	-364.51553	564.92054	-159.68966	-375.78861	539.83841	-94.88686	-249.4161	554.12941	-36.54971	-252.69321	546.28944	-186.09793	-297.75114	139.25322	-267.61272	-298.06166	153.41792	-187.54097	-216.94981	140.49283	-214.22817	-331.22189	192.549	-117.41796	-257.96232	184.1864	-75.34172	-293.96232	163.1864	-159.34172	-461.00887	1037.94823	1732.29248	-420.88589	1054.7541	1445.14084	-262.89839	1133.36876	1738.07693	-400.10941	1566.58844	1583.16605	-259.95192	1592.32468	1590.64117	-441.01677	1775.21622	1586.88492	-278.81008	1734.85077	1507.74139	-285.81755	1731.91406	1663.95767	-325.90649	1555.50476	1422.01233	-390.95737	1422.74918	1137.86362	-434.93504	1462.42752	1181.77269	-339.01581	1484.32022	1171.19743	-461.1948	1701.72729	1106.05522	-404.20185	1712.8186	1098.1485	-398.40553	1704.11362	1151.94046	-317.8068	1553.02872	1788.11249	-400.07729	1493.27408	2010.56671	-308.42384	1496.27899	2017.41455	-358.95626	1446.94443	2061.02905	-418.52623	1727.05093	2070.97351	-376.35693	1731.51047	2058.1488	-373.85006	1720.15976	2010.38406	-327.08092	1005.57106	1402.06024	-319.41586	1010.28992	1801.86111	-371.31809	456.0252	1447.49649	-271.58443	490.97492	1419.10355	-278.92155	459.14745	1540.12634	-358.1942	451.95713	1767.47665	-245.22015	486.48159	1782.74368	-317.58308	443.99994	1676.18347	-323.40851	130.21164	1417.42661	-294.31852	126.80925	1481.83334	-243.01395	127.35872	1417.14172	-323.34732	135.19508	1791.52298	-250.56061	125.00995	1805.33295	-294.02239	123.84929	1732.03568	-232.62609	1146.31287	1521.63834	-320.01423	1173.70094	44.54106
77	17.1	-520.11131	1230.24208	-65.10285	-504.58076	1250.00046	-295.79107	-218.5762	1216.38741	-348.2143	-245.56244	1207.61124	1.91837	-366.82358	1605.41595	-153.46537	-228.22126	1660.44113	-168.14333	-408.13084	1815.82291	-159.41903	-225.26365	1759.77402	-226.76342	-265.51016	1772.50885	-75.47506	-284.23706	1535.09949	-420.12012	-218.59655	1221.5155	-456.10435	-317.41634	1163.57056	-424.46911	-307.25422	1226.19209	-473.87722	-266.85972	901.53511	-492.94399	-298.92447	899.10713	-528.59261	-340.82916	915.74821	-513.16063	-254.9518	1522.29874	79.57046	-302.52871	1207.45934	137.82855	-230.75392	1193.64868	91.5919	-290.56614	884.24713	143.75596	-286.78511	884.4841	191.36776	-336.3229	905.52879	198.23502	-406.7662	1046.99493	-431.1834	-356.26766	1007.08748	53.37888	-428.96053	563.15418	-252.09974	-323.18165	578.09879	-321.43772	-364.72836	565.00298	-159.84963	-375.77827	539.78939	-95.14112	-249.47025	554.17362	-36.67134	-252.69724	546.30428	-186.27615	-297.75364	139.21165	-267.66626	-298.27911	153.37294	-187.54454	-216.95618	140.49561	-214.27347	-331.22425	192.54658	-117.48075	-257.75024	184.23967	-74.75858	-293.75024	163.23967	-158.75858	-460.80914	1037.93953	1732.31033	-420.66483	1054.7065	1445.17014	-262.80741	1133.43765	1738.23975	-399.80232	1566.57837	1583.21045	-259.72883	1592.36328	1590.66772	-440.96497	1775.08926	1586.80862	-278.57822	1734.84955	1507.77084	-285.75285	1731.98471	1664.04495	-325.58701	1555.53482	1422.13882	-390.61935	1422.71561	1137.83203	-434.67148	1462.26624	1181.86119	-338.81504	1484.33884	1171.31882	-461.18114	1701.60889	1106.4357	-404.19895	1712.85812	1098.58162	-398.38001	1704.03687	1152.37564	-317.82904	1553.11264	1788.20862	-400.10994	1493.45505	2010.66772	-308.42236	1496.35849	2017.53784	-358.9682	1447.11868	2061.16104	-418.12225	1727.26593	2071.21384	-376.08303	1731.67664	2057.84088	-373.40618	1720.36758	2010.68176	-326.66252	1005.57976	1402.17194	-319.19987	1010.40436	1802.31308	-371.17794	456.04679	1447.53281	-271.45016	490.9708	1419.09653	-278.75389	459.08791	1540.22766	-358.16936	451.94286	1767.52777	-245.22701	486.44485	1782.83096	-317.55167	443.99906	1676.25656	-323.39832	130.20233	1417.44461	-294.28289	126.79953	1481.83914	-242.9952	127.34941	1417.1553	-323.16162	135.05417	1791.56326	-250.50901	125.00713	1805.37552	-293.99059	123.85544	1732.04102	-232.4575	1146.36307	1521.65756	-317.95584	1174.86259	48.93909
78	17.117	-520.35511	1229.98352	-65.71002	-504.82162	1249.86191	-296.32822	-220.13449	1216.9973	-348.79799	-246.62918	1207.45644	0.13761	-367.05883	1605.14374	-153.77279	-228.33578	1660.46188	-168.64655	-408.15674	1815.64301	-159.77776	-225.28431	1759.69666	-227.17041	-265.52002	1772.40982	-75.81079	-283.20271	1535.05112	-420.65063	-217.37869	1222.26181	-460.73494	-316.25523	1165.03502	-429.81182	-306.13968	1228.27209	-480.06367	-267.09208	903.78242	-506.72173	-297.31028	902.80991	-543.97408	-339.74579	919.47586	-530.17448	-251.86644	1521.91483	78.07294	-299.13366	1211.2838	146.78767	-231.20319	1193.60596	95.00161	-290.71445	887.49031	162.90257	-283.42316	889.38599	210.11845	-332.45522	911.79634	220.45818	-406.31115	1047.08923	-431.62178	-356.40381	1007.14485	53.06967	-428.92349	563.17394	-252.38111	-323.08647	578.11779	-321.59763	-364.85146	565.093	-160.0695	-375.84293	539.82677	-95.33336	-249.51048	554.22077	-36.83012	-252.69962	546.33472	-186.46549	-297.74918	139.2127	-267.74647	-298.07724	153.4078	-187.64015	-216.9482	140.51008	-214.29899	-331.25679	192.54242	-117.5504	-257.80437	184.20834	-74.70797	-293.80437	163.20834	-158.70797	-460.71514	1037.93678	1732.35916	-420.52971	1054.64798	1445.32684	-262.75021	1133.4993	1738.33344	-399.43806	1566.41617	1583.19763	-259.5142	1592.33841	1590.64941	-440.84484	1774.93515	1586.70517	-278.36954	1734.84268	1507.85721	-285.66339	1732.0314	1664.06479	-325.24422	1555.49225	1422.21237	-390.24204	1422.75848	1137.91702	-434.18571	1461.99982	1181.86989	-338.58704	1484.38232	1171.54137	-461.11088	1701.5271	1106.68312	-404.14558	1712.92938	1099.31137	-398.39676	1703.93677	1152.85034	-317.6626	1553.14056	1788.21823	-400.0518	1493.59161	2010.79025	-308.36716	1496.33804	2017.62589	-358.97102	1447.23022	2061.20895	-417.52068	1727.47086	2071.50345	-375.14313	1731.88507	2058.15521	-372.80067	1720.43213	2010.94727	-326.37138	1005.58647	1402.33887	-319.06286	1010.47249	1802.54913	-371.27098	455.84072	1447.13852	-271.30062	490.95238	1419.16412	-278.67657	459.03362	1540.26962	-358.12115	451.91174	1767.65411	-245.19865	486.41205	1782.90314	-317.54553	444.03248	1676.32355	-323.36647	130.21495	1417.45773	-294.25262	126.80582	1481.83258	-242.96267	127.35075	1417.16599	-323.23494	135.13083	1791.64322	-250.45485	124.9965	1805.41931	-293.95283	123.86255	1732.06757	-232.32105	1146.38428	1521.81763	-316.5037	1176.91063	55.0867
79	17.133	-520.63126	1229.75082	-66.23014	-505.00996	1249.74213	-296.81076	-221.65142	1217.60918	-349.3042	-247.62867	1207.26463	-1.60607	-367.14577	1604.98184	-154.25508	-228.19876	1660.40817	-169.12273	-408.26149	1815.29541	-160.1018	-225.26606	1759.95865	-227.50319	-265.55517	1772.37152	-76.32622	-282.10554	1535.25955	-421.25736	-217.17178	1223.70003	-465.85693	-315.80498	1167.46773	-436.24104	-305.43594	1231.59645	-487.93171	-267.70557	907.35519	-523.84201	-296.09829	908.08479	-562.36813	-338.97995	924.7364	-550.32486	-249.12603	1521.70776	76.74199	-295.30722	1216.34209	156.15949	-232.18018	1194.46495	100.77846	-290.94002	892.71873	185.19083	-280.07288	896.26938	231.36356	-328.04966	919.93576	244.29203	-405.61546	1047.26509	-432.06314	-357.42985	1007.62398	53.38616	-428.8834	563.15998	-252.65526	-322.97157	578.11985	-321.78959	-364.91489	565.09724	-160.26796	-375.91679	539.8661	-95.55443	-249.58277	554.27734	-36.98134	-252.7187	546.32084	-186.64785	-297.72392	139.1814	-267.7737	-298.22287	153.42239	-187.69941	-216.91299	140.4909	-214.32407	-331.28792	192.55484	-117.6502	-257.98342	184.24513	-75.13957	-293.98342	163.24513	-159.13957	-460.68085	1037.9454	1732.41013	-420.37025	1054.62715	1445.46967	-262.66417	1133.52921	1738.4996	-399.49436	1566.54221	1583.18924	-259.35982	1592.34344	1590.59769	-440.74764	1774.82742	1586.55182	-278.16008	1734.86267	1507.90039	-285.60106	1732.03674	1664.03229	-324.92733	1555.4509	1422.25662	-389.83322	1422.77542	1138.06557	-433.7796	1462.02286	1182.01561	-338.23975	1484.41544	1171.70891	-461.05919	1701.39526	1106.89743	-403.99704	1713.04474	1099.77165	-398.35567	1703.86368	1153.24402	-317.61646	1553.1459	1788.28064	-399.9493	1493.67798	2010.91675	-308.25003	1496.23627	2017.6915	-358.94138	1447.258	2061.25443	-416.57177	1727.61337	2071.6864	-374.10477	1732.03918	2058.43628	-372.13188	1720.45761	2011.12335	-326.18565	1005.58189	1402.4939	-318.96847	1010.51186	1802.75192	-371.00403	456.0709	1447.60254	-271.17712	490.93395	1419.19952	-278.55381	459.04617	1540.34332	-358.13828	451.90319	1767.73178	-245.19449	486.37398	1782.99759	-317.51577	444.02447	1676.44547	-323.34179	130.22931	1417.46948	-294.25312	126.80913	1481.83334	-242.93682	127.3294	1417.19254	-323.15445	135.08536	1791.68839	-250.47441	124.94374	1805.39139	-293.92447	123.86906	1732.07825	-232.00245	1146.44005	1522.5267	-317.00434	1179.45724	64.45374
